<?xml version="1.0" standalone="no"?>
<!DOCTYPE svg PUBLIC "-//W3C//DTD SVG 20010904//EN"
 "http://www.w3.org/TR/2001/REC-SVG-20010904/DTD/svg10.dtd">
<svg version="1.0" xmlns="http://www.w3.org/2000/svg"
 width="1280.000000pt" height="698.000000pt" viewBox="0 0 1280.000000 698.000000"
 preserveAspectRatio="xMidYMid meet">
<g transform="translate(0.000000,698.000000) scale(0.100000,-0.100000)"
fill="#000000" stroke="none">
<path d="M4610 6910 l0 -70 -1375 0 -1375 0 0 -440 0 -440 1375 0 1375 0 0
-645 0 -645 -32 0 c-18 0 -355 16 -748 34 -2004 96 -1892 92 -2027 73 -519
-73 -815 -420 -918 -1080 l-6 -38 -25 48 c-74 139 -252 234 -416 220 -151 -13
-321 -135 -396 -285 -32 -66 -37 -85 -37 -147 0 -60 5 -81 34 -139 66 -135
219 -250 368 -278 167 -31 381 74 450 222 l21 45 6 -40 c48 -310 133 -537 268
-717 172 -227 423 -353 743 -373 65 -4 536 15 1363 54 695 34 1283 61 1307 61
l45 0 0 -645 0 -645 -1375 0 -1375 0 0 -440 0 -440 1375 0 1375 0 0 -80 0 -80
220 0 220 0 0 80 0 80 1400 0 1400 0 0 440 0 440 -1400 0 -1400 0 0 655 0 654
33 5 c17 3 529 25 1137 51 608 25 2050 86 3205 135 2878 123 2679 116 2788
101 181 -26 372 -104 512 -209 l70 -52 3 1117 c1 614 0 1118 -2 1120 -2 3 -31
-16 -65 -42 -131 -100 -324 -177 -524 -211 -92 -16 -130 -16 -387 -6 -157 7
-1336 57 -2620 112 -1284 55 -2724 115 -3200 135 -476 20 -884 38 -907 41
l-43 5 0 655 0 654 1400 0 1400 0 0 440 0 440 -1400 0 -1400 0 0 70 0 70 -220
0 -220 0 0 -70z"/>
</g>
</svg>
